Coordinates
version=1
nRows=17
nColumns=63
inDegrees=yes

Units are S.I. units (second, meters, Newtons, ...)
If the header above contains a line with 'inDegrees', this indicates whether rotational values are in degrees (yes) or radians (no).

endheader
time	pelvis_tilt	pelvis_list	pelvis_rotation	pelvis_tx	pelvis_ty	pelvis_tz	hip_flexion_r	hip_adduction_r	hip_rotation_r	knee_angle_r	knee_angle_r_beta	ankle_angle_r	subtalar_angle_r	mtp_angle_r	hip_flexion_l	hip_adduction_l	hip_rotation_l	knee_angle_l	knee_angle_l_beta	ankle_angle_l	subtalar_angle_l	mtp_angle_l	L5_S1_Flex_Ext	L5_S1_Lat_Bending	L5_S1_axial_rotation	L4_L5_Flex_Ext	L4_L5_Lat_Bending	L4_L5_axial_rotation	L3_L4_Flex_Ext	L3_L4_Lat_Bending	L3_L4_axial_rotation	L2_L3_Flex_Ext	L2_L3_Lat_Bending	L2_L3_axial_rotation	L1_L2_Flex_Ext	L1_L2_Lat_Bending	L1_L2_axial_rotation	L1_T12_Flex_Ext	L1_T12_Lat_Bending	L1_T12_axial_rotation	Abs_r3	Abs_r2	Abs_r1	Abs_t1	Abs_t2	neck_flexion	neck_bending	neck_rotation	arm_flex_r	arm_add_r	arm_rot_r	elbow_flex_r	pro_sup_r	wrist_flex_r	wrist_dev_r	arm_flex_l	arm_add_l	arm_rot_l	elbow_flex_l	pro_sup_l	wrist_flex_l	wrist_dev_l
3.881356	-8.589303	-17.270910	73.316173	0.240849	0.378713	0.957400	24.867717	-4.907630	-26.659015	24.950425	0.435467	27.860321	16.222653	0.000000	25.078608	-2.031653	-15.303730	22.746218	0.396996	32.598353	16.198331	0.000000	-0.242609	-0.166116	-0.226805	-0.450549	-0.220934	-0.240980	-0.398583	-0.403894	-0.240980	-0.277278	-0.403894	-0.198454	-0.225287	-0.338744	-0.184279	-0.138627	-0.257314	-0.170104	-1.732933	-1.879137	-1.261420	0.000000	0.000000	5.406053	9.599457	9.087090	-12.161132	-32.215648	23.311780	122.179913	79.545714	15.772409	11.271505	32.002624	-7.441993	15.041435	126.408688	89.603827	1.730379	7.353260
3.898305	-7.694130	-17.425504	74.317208	0.240719	0.383056	0.956281	23.464199	-3.648424	-26.994380	22.351720	0.390111	26.346675	15.727098	0.000000	24.358629	-2.374802	-14.171253	21.350345	0.372634	31.334415	15.756805	0.000000	-0.227324	-0.192532	-0.187198	-0.422163	-0.256068	-0.198898	-0.373471	-0.468122	-0.198898	-0.259809	-0.468122	-0.163799	-0.211093	-0.392611	-0.152099	-0.129893	-0.298232	-0.140399	-1.623752	-2.177960	-1.041142	0.000000	0.000000	5.779230	11.652572	8.238683	-4.769435	-34.107318	23.562340	122.901033	77.817694	12.650666	10.967640	26.966561	-5.826053	16.328520	130.203419	89.405297	1.556769	10.711080
3.915254	-6.686692	-17.675044	75.586015	0.240054	0.387018	0.955657	22.227188	-2.338399	-27.362127	19.813110	0.345804	24.764882	15.061876	0.000000	23.897142	-2.770234	-12.843989	20.146414	0.351621	30.150851	15.349991	0.000000	-0.214808	-0.198729	-0.187659	-0.398920	-0.264309	-0.199388	-0.352908	-0.483189	-0.199388	-0.245504	-0.483189	-0.164202	-0.199471	-0.405247	-0.152473	-0.122741	-0.307831	-0.140744	-1.534351	-2.248058	-1.043704	0.000000	0.000000	6.185491	13.564063	7.416495	4.219465	-35.925275	24.517743	122.463702	76.460525	10.036495	10.530038	22.589075	-4.381605	17.664246	133.299957	89.266937	1.152394	13.579777
3.932203	-5.601523	-18.012751	77.105847	0.238888	0.390328	0.955697	21.240422	-1.049403	-27.761781	17.477729	0.305044	23.218166	14.244828	0.000000	23.754480	-3.188585	-11.351076	19.217954	0.335417	29.103172	15.010383	0.000000	-0.203909	-0.188652	-0.218596	-0.378679	-0.250908	-0.232258	-0.335002	-0.458690	-0.232258	-0.233048	-0.458690	-0.191271	-0.189350	-0.384700	-0.177609	-0.116514	-0.292223	-0.163947	-1.456501	-2.134074	-1.215763	0.000000	0.000000	6.589891	15.262658	6.477771	14.538131	-37.528023	25.956872	120.801674	75.639124	7.922249	9.940391	18.876384	-3.108850	18.964480	135.744509	89.200568	0.689544	15.872805
3.949153	-4.492099	-18.409174	78.822479	0.237350	0.392794	0.956521	20.545173	0.144203	-28.187448	15.461687	0.269857	21.822972	13.345939	0.000000	23.942693	-3.596629	-9.764529	18.621958	0.325014	28.234804	14.757651	0.000000	-0.196622	-0.169685	-0.262982	-0.365148	-0.225681	-0.279419	-0.323031	-0.412571	-0.279419	-0.224720	-0.412571	-0.230109	-0.182584	-0.346021	-0.213673	-0.112350	-0.262842	-0.197237	-1.404454	-1.919508	-1.462628	0.000000	0.000000	6.971764	16.703336	5.291960	25.800953	-38.803003	27.603452	118.054427	75.404313	6.201211	9.276806	15.810940	-2.001080	20.179711	137.583313	89.166570	0.432563	17.472078
3.966102	-3.437809	-18.838961	80.665594	0.235612	0.394339	0.958123	20.156080	1.153046	-28.638389	13.844472	0.241632	20.672732	12.433090	0.000000	24.435310	-3.939640	-8.171643	18.357409	0.320397	27.555666	14.607753	0.000000	-0.193840	-0.152267	-0.300425	-0.359981	-0.202515	-0.319202	-0.318460	-0.370223	-0.319202	-0.221540	-0.370223	-0.262872	-0.180000	-0.310503	-0.244096	-0.110760	-0.235862	-0.225319	-1.384582	-1.722477	-1.670876	0.000000	0.000000	7.288130	17.876724	3.750589	37.499164	-39.688411	29.196339	114.488738	75.603987	4.791777	8.722730	13.365648	-1.049702	21.314242	138.861487	89.158115	0.463815	18.179168
3.983051	-2.486044	-19.308121	82.559800	0.233846	0.394908	0.960452	20.093505	1.938344	-29.112728	12.672931	0.221184	19.828555	11.566557	0.000000	25.228903	-4.209300	-6.658307	18.435345	0.321757	27.082154	14.573320	0.000000	-0.193362	-0.142706	-0.314256	-0.359093	-0.189799	-0.333897	-0.317675	-0.346976	-0.333897	-0.220994	-0.346976	-0.274974	-0.179556	-0.291007	-0.255333	-0.110487	-0.221052	-0.235692	-1.381168	-1.614322	-1.747797	0.000000	0.000000	7.565992	18.769687	1.733521	49.097544	-40.144770	30.565135	110.371147	76.053317	3.734195	8.257860	11.544092	-0.243308	22.462306	139.691468	89.172160	0.498139	18.118035
4.000000	-1.643243	-19.795369	84.475425	0.232119	0.394599	0.963305	20.313738	2.488586	-29.621179	11.925550	0.208140	19.290102	10.742500	0.000000	26.270636	-4.387286	-5.250053	18.805976	0.328226	26.802700	14.655537	0.000000	-0.194388	-0.140791	-0.306643	-0.360999	-0.187252	-0.325808	-0.319361	-0.342320	-0.325808	-0.222166	-0.342320	-0.268313	-0.180509	-0.287101	-0.249147	-0.111074	-0.218086	-0.229982	-1.388497	-1.592658	-1.705456	0.000000	0.000000	7.766347	19.414983	-0.633720	60.112618	-40.131194	31.657054	105.952528	76.618773	3.053284	7.885225	10.316554	0.470783	23.595454	140.120027	89.202345	0.404025	17.234028
4.016949	-0.892627	-20.302291	86.349549	0.230453	0.393524	0.966510	20.781804	2.826107	-30.211921	11.595599	0.202381	19.041328	10.023727	0.000000	27.522680	-4.515851	-4.002072	19.459675	0.339635	26.719231	14.857418	0.000000	-0.197748	-0.141580	-0.277615	-0.367238	-0.188301	-0.294966	-0.324880	-0.344237	-0.294966	-0.226006	-0.344237	-0.242913	-0.183629	-0.288709	-0.225562	-0.112993	-0.219307	-0.208211	-1.412494	-1.601577	-1.544010	0.000000	0.000000	7.975050	19.795363	-3.245539	70.126053	-39.708076	32.469074	101.500445	77.366265	2.827896	7.527526	9.682508	1.125313	24.677363	140.294291	89.226230	-0.040092	15.985123
4.033898	-0.211300	-20.803963	88.158152	0.228837	0.391899	0.969784	21.404137	2.989567	-30.913117	11.597739	0.202419	19.027359	9.424068	0.000000	28.893141	-4.605551	-2.918983	20.315936	0.354580	26.799170	15.170017	0.000000	-0.205018	-0.140082	-0.240370	-0.380739	-0.186309	-0.255393	-0.336824	-0.340596	-0.255393	-0.234315	-0.340596	-0.210324	-0.190380	-0.285656	-0.195301	-0.117147	-0.216987	-0.180278	-1.464422	-1.584639	-1.336867	0.000000	0.000000	8.202489	19.933968	-5.883135	78.776588	-38.965374	33.034512	97.289656	78.371372	3.113138	7.239517	9.577896	1.736094	25.608283	140.262538	89.226566	-0.869935	14.419408
4.050847	0.419713	-21.295393	89.893173	0.227207	0.389907	0.972899	22.112237	3.015385	-31.776321	11.855042	0.206910	19.194644	8.986883	0.000000	30.322418	-4.668745	-1.970930	21.309353	0.371918	27.001177	15.563451	0.000000	-0.214619	-0.131786	-0.208012	-0.398569	-0.175275	-0.221012	-0.352598	-0.320424	-0.221012	-0.245288	-0.320424	-0.182010	-0.199295	-0.268738	-0.169009	-0.122633	-0.204136	-0.156009	-1.533002	-1.490787	-1.156898	0.000000	0.000000	8.479203	19.830099	-8.385629	85.754768	-38.039832	33.402117	93.602784	79.783832	3.788472	7.015820	9.921367	2.331417	26.290738	140.047575	89.208806	-1.999587	12.599077
4.067797	0.993596	-21.767563	91.505587	0.225580	0.387728	0.975669	22.849154	2.940557	-32.773365	12.293711	0.214566	19.490019	8.725884	0.000000	31.740542	-4.717194	-1.181465	22.372733	0.390478	27.286172	16.018603	0.000000	-0.224828	-0.117506	-0.180708	-0.417527	-0.156283	-0.192002	-0.369369	-0.285705	-0.192002	-0.256955	-0.285705	-0.158119	-0.208775	-0.239619	-0.146825	-0.128466	-0.182017	-0.135531	-1.605921	-1.329254	-1.005042	0.000000	0.000000	8.837567	19.526177	-10.638367	90.775989	-37.052521	33.495417	90.750474	81.681307	4.783814	6.945523	10.637136	2.909808	26.726621	139.615592	89.183592	-3.411179	10.462331
4.084746	1.439471	-22.200676	92.870106	0.224106	0.385563	0.977913	23.569394	2.758650	-33.777832	12.868257	0.224593	19.877321	8.629829	0.000000	33.043091	-4.734922	-0.628961	23.402684	0.408454	27.599290	16.497259	0.000000	-0.232743	-0.108580	-0.143487	-0.432226	-0.144411	-0.152455	-0.382373	-0.264001	-0.152455	-0.266002	-0.264001	-0.125551	-0.216125	-0.221416	-0.116583	-0.132989	-0.168190	-0.107615	-1.662457	-1.228276	-0.798031	0.000000	0.000000	9.260050	19.141730	-12.683002	93.622072	-36.120710	33.273087	88.997653	83.885073	5.592906	6.954742	11.654809	3.457128	26.963681	138.898142	89.158591	-4.952454	7.945454
4.101695	1.803947	-22.571119	94.057752	0.222655	0.383575	0.979551	24.192433	2.523567	-34.892039	13.480467	0.235279	20.317391	8.788773	0.000000	34.191275	-4.730545	-0.177367	24.371224	0.425358	27.908766	16.940448	0.000000	-0.237034	-0.101211	-0.112648	-0.440196	-0.134610	-0.119689	-0.389424	-0.246084	-0.119689	-0.270906	-0.246084	-0.098567	-0.220110	-0.206389	-0.091527	-0.135441	-0.156775	-0.084486	-1.693112	-1.144915	-0.626517	0.000000	0.000000	9.696461	18.660124	-14.446406	94.288101	-35.278892	32.629186	88.567206	85.713696	6.227196	7.493586	12.862264	3.953755	27.045195	137.922558	89.138995	-6.533573	5.190226
4.118644	1.999238	-22.837289	94.881280	0.221504	0.382003	0.980487	24.667775	2.241012	-35.785745	14.069844	0.245565	20.763636	9.037667	0.000000	35.050385	-4.696595	0.005054	25.168219	0.439268	28.179480	17.338918	0.000000	-0.237373	-0.110490	-0.068598	-0.440825	-0.146951	-0.072885	-0.389980	-0.268645	-0.072885	-0.271293	-0.268645	-0.060023	-0.220424	-0.225311	-0.055736	-0.135635	-0.171149	-0.051448	-1.695530	-1.249882	-0.381519	0.000000	0.000000	10.056220	18.222420	-15.988728	92.977440	-34.608355	31.713145	89.451694	86.463960	6.224625	8.181278	14.164320	4.295392	27.011786	136.733290	89.126968	-7.973662	2.274504
4.135593	2.038552	-22.964804	95.363946	0.220565	0.381027	0.980644	24.909909	1.935598	-36.501888	14.538576	0.253746	21.178203	9.475120	0.000000	35.553895	-4.625287	0.003874	25.742428	0.449290	28.385805	17.625835	0.000000	-0.234521	-0.134822	-0.021915	-0.435528	-0.179314	-0.023285	-0.385294	-0.327807	-0.023285	-0.268034	-0.327807	-0.019176	-0.217776	-0.274930	-0.017806	-0.134005	-0.208840	-0.016436	-1.675157	-1.525137	-0.121886	0.000000	0.000000	10.204845	17.755996	-17.258290	90.066484	-34.173324	30.694342	91.546386	85.985548	5.466041	8.838310	15.483838	4.407535	26.921443	135.381263	89.123283	-9.411115	-0.763816
4.152542	1.904140	-22.929946	95.432752	0.219926	0.380739	0.980050	24.894382	1.628187	-36.852075	14.849020	0.259164	21.518327	9.975973	0.000000	35.646580	-4.528284	-0.256239	26.051228	0.454680	28.540309	17.831669	0.000000	-0.230430	-0.174537	0.033418	-0.427932	-0.232134	0.035507	-0.378574	-0.424369	0.035507	-0.263359	-0.424369	0.029241	-0.213978	-0.355916	0.027153	-0.131668	-0.270358	0.025064	-1.645940	-1.974396	0.185863	0.000000	0.000000	10.108669	17.217308	-18.146763	86.005476	-33.922238	29.677221	94.526928	84.892793	4.311861	9.169611	16.792233	4.242112	26.712255	133.967631	89.130808	-10.767535	-3.589255
